<svg xmlns="http://www.w3.org/2000/svg" viewBox="0 0 100 100" width="100" height="100">
  <defs>
    <linearGradient id="gradient" x1="0%" y1="0%" x2="100%" y2="100%">
      <stop offset="0%" style="stop-color:#e06459"/>
      <stop offset="100%" style="stop-color:#cca01f"/>
    </linearGradient>
  </defs>
  <circle cx="50" cy="50" r="45" fill="url(#gradient)"/>
  <path d="M50 25 C35 25 25 40 25 50 C25 70 50 80 50 80 C50 80 75 70 75 50 C75 40 65 25 50 25 Z" fill="white" opacity="0.9"/>
  <path d="M50 30 C38 30 30 42 30 50 C30 65 50 75 50 75 C50 75 70 65 70 50 C70 42 62 30 50 30 Z" fill="url(#gradient)"/>
</svg>
